<svg aria-label="Facebook Ableton" viewBox="0 0 48 48" xmlns="http://www.w3.org/2000/svg"><g clip-path="url(#a)"><path d="M48 24C48 10.745 37.255 0 24 0S0 10.745 0 24c0 11.255 7.749 20.7 18.202 23.293V31.334h-4.949V24h4.95v-3.16c0-8.169 3.696-11.955 11.716-11.955 1.52 0 4.144.298 5.217.596v6.648c-.566-.06-1.55-.09-2.773-.09-3.935 0-5.456 1.492-5.456 5.367V24h7.84L33.4 31.334h-6.492v16.49C38.79 46.39 48 36.271 48 24z" fill="#0866FF"/><path d="M33.4 31.334 34.747 24h-7.84v-2.594c0-3.875 1.521-5.366 5.456-5.366 1.223 0 2.206.03 2.773.09V9.48c-1.073-.298-3.697-.596-5.217-.596-8.02 0-11.717 3.786-11.717 11.955V24h-4.949v7.334h4.95v15.96a24.05 24.05 0 0 0 8.705.53v-16.49H33.4z" fill="#fff"/></g><defs><clipPath id="a"><path fill="#fff" d="M0 0h48v48H0z"/></clipPath></defs></svg>