<svg aria-label="TikTok Ableton" viewBox="0 0 48 48" xmlns="http://www.w3.org/2000/svg"><path d="M34.353 17.327a18.724 18.724 0 0 0 10.952 3.517v-7.887c-.773 0-1.544-.08-2.3-.241v6.208a18.727 18.727 0 0 1-10.952-3.517v16.095c0 8.051-6.504 14.578-14.526 14.578a14.42 14.42 0 0 1-8.087-2.466A14.457 14.457 0 0 0 19.826 48c8.023 0 14.527-6.527 14.527-14.578V17.327zM37.19 9.37a11.012 11.012 0 0 1-2.837-6.436V1.92h-2.18a11.043 11.043 0 0 0 5.017 7.45zM14.514 37.436a6.657 6.657 0 0 1-1.355-4.038c0-3.682 2.975-6.668 6.645-6.668.684 0 1.364.105 2.015.313V18.98a14.61 14.61 0 0 0-2.299-.133v6.276a6.627 6.627 0 0 0-2.016-.313c-3.67 0-6.645 2.986-6.645 6.669a6.67 6.67 0 0 0 3.655 5.957z" fill="#FF004F"/><path d="M32.053 15.407a18.727 18.727 0 0 0 10.952 3.517v-6.208A10.984 10.984 0 0 1 37.19 9.37a11.043 11.043 0 0 1-5.017-7.45h-5.725v31.5c-.013 3.673-2.983 6.646-6.645 6.646a6.627 6.627 0 0 1-5.29-2.631 6.67 6.67 0 0 1-3.655-5.957c0-3.683 2.975-6.669 6.645-6.669.703 0 1.381.11 2.017.313v-6.276C11.638 19.01 5.3 25.473 5.3 33.42c0 3.968 1.578 7.565 4.14 10.193a14.422 14.422 0 0 0 8.087 2.466c8.022 0 14.526-6.527 14.526-14.578V15.407z"/><path d="M43.005 12.716v-1.679A10.921 10.921 0 0 1 37.19 9.37a10.975 10.975 0 0 0 5.815 3.346zM32.173 1.92c-.052-.3-.092-.602-.12-.906V0h-7.905v31.502c-.013 3.671-2.982 6.645-6.645 6.645a6.598 6.598 0 0 1-2.99-.711 6.627 6.627 0 0 0 5.29 2.631c3.662 0 6.632-2.973 6.645-6.646V1.92h5.725zM19.52 18.847V17.06a14.62 14.62 0 0 0-1.993-.136C9.504 16.924 3 23.451 3 31.502c0 5.047 2.556 9.495 6.44 12.112A14.555 14.555 0 0 1 5.3 33.421c0-7.948 6.339-14.41 14.22-14.574z" fill="#00F2EA"/></svg>